<?xml version="1.0" standalone="no" ?>
<!DOCTYPE svg PUBLIC "-//W3C//DTD SVG 1.1//EN" "http://www.w3.org/Graphics/SVG/1.1/DTD/svg11.dtd">
<svg width="18.4037px" height="18.4037px" xmlns="http://www.w3.org/2000/svg" version="1.1" >
	<path d = "M5.10561,17.2752 L16.2008,12.973 L11.8024,1.62978 L0.707226,5.93199 z" fill="rgb(255,255,0)" stroke-width="0.5" stroke="rgb(0,0,0)" />
	<path d = "M14.7253,9.99091 L14.4323,9.59638 L14.1315,9.20966 L13.8483,8.8288 L13.6081,8.45185 L13.4362,8.07685 L13.3581,7.70185 L13.3464,7.3288 L13.3737,6.95966 L13.4128,6.59638 L13.4362,6.24091 L13.4167,5.89521 L13.3269,5.56123 L13.1394,5.24091 L12.8269,4.93623 L12.403,4.65302 L11.8815,4.39716 L11.2761,4.17451 L10.6003,3.99091 L9.86787,3.85224 L9.09248,3.76435 L8.28779,3.7331 L7.46748,3.76435 L6.64912,3.8581 L5.85029,4.01435 L5.08857,4.2331 L4.38154,4.51435 L3.74677,4.8581 L3.20185,5.26435 L2.76435,5.7331 L2.45185,6.26435 L2.25068,6.84638 L2.14716,7.46748 L2.12763,8.11591 L2.17841,8.77998 L2.28584,9.44795 L2.43623,10.1081 L2.61591,10.7487 L2.81123,11.3581 L3.03388,11.9323 L3.2956,12.4675 L3.6081,12.9597 L3.9831,13.405 L4.43232,13.7995 L4.96748,14.1394 L5.60029,14.4206 L6.34248,14.6394 L7.16865,14.7956 L8.05341,14.8894 L8.97138,14.9206 L9.89716,14.8894 L10.8054,14.7956 L11.6706,14.6394 L12.4675,14.4206 L13.1706,14.1394 L13.778,13.8054 L14.2878,13.4284 L14.6979,13.0183 L15.0065,12.5847 L15.2116,12.1374 L15.3112,11.6862 L15.3034,11.2409 L15.1862,10.8112 L14.9851,10.3952 z" fill="rgb(192,192,192)" stroke-width="0.5" stroke="rgb(0,0,0)" />
</svg>
