<?xml version="1.0" standalone="no" ?>
<!DOCTYPE svg PUBLIC "-//W3C//DTD SVG 1.1//EN" "http://www.w3.org/Graphics/SVG/1.1/DTD/svg11.dtd">
<svg width="19.1466px" height="19.1466px" xmlns="http://www.w3.org/2000/svg" version="1.1" >
	<path d = "M16.7319,10.9013 L14.8725,5.65125 L14.685,5.33094 L14.3725,5.02625 L13.9487,4.74305 L13.4272,4.48719 L12.8218,4.26454 L12.146,4.08094 L11.4135,3.94227 L10.6382,3.85438 L9.83347,3.82313 L9.01316,3.85438 L8.1948,3.94813 L7.39597,4.10438 L6.63425,4.32313 L5.92722,4.60438 L5.29245,4.94813 L4.74753,5.35438 L4.31003,5.82313 L3.99753,6.35438 L3.79636,6.93641 L3.69284,7.5575 L3.67331,8.20594 L3.72409,8.87 L3.83152,9.53797 L3.98191,10.1981 L4.16159,10.8388 L4.35691,11.4481 L4.57956,12.0223 L4.84128,12.5575 L5.15378,13.0497 L5.52878,13.495 L5.978,13.8895 L6.51316,14.2294 L7.14597,14.5106 L7.88816,14.7294 L8.71433,14.8856 L9.59909,14.9794 L10.5171,15.0106 L11.4428,14.9794 L12.351,14.8856 L13.2163,14.7294 L14.0132,14.5106 L14.7163,14.2294 L15.3237,13.8954 L15.8335,13.5184 L16.2436,13.1083 L16.5522,12.6747 L16.7573,12.2274 L16.8569,11.7763 L16.8491,11.3309 z" fill="rgb(192,192,192)" stroke-width="0.5" stroke="rgb(0,0,0)" />
</svg>
