<?xml version="1.0" standalone="no" ?>
<!DOCTYPE svg PUBLIC "-//W3C//DTD SVG 1.1//EN" "http://www.w3.org/Graphics/SVG/1.1/DTD/svg11.dtd">
<svg width="25.7774px" height="25.7774px" xmlns="http://www.w3.org/2000/svg" version="1.1" >
	<path d = "M19.8438,4.57771 L9.61978,2.06361 L5.3225,19.5392 L15.5465,22.0533 z" fill="rgb(255,255,0)" stroke-width="0.5" stroke="rgb(0,0,0)" />
	<path d = "M15.2487,14.0062 L14.8424,12.5999 L14.4049,10.928 L13.9674,9.28741 L13.5612,7.97491 L13.2174,7.28741 L12.9205,7.03741 L12.6549,7.03741 L12.4049,7.09991 L12.1549,7.03741 L11.9049,7.03741 L11.6549,7.28741 L11.4049,7.97491 L11.1549,9.28741 L10.8424,10.9437 L10.4049,12.6624 L9.77991,14.1624 L8.90491,15.1624 L7.93616,15.7874 L7.02991,16.1624 L6.34241,16.4124 L6.02991,16.6624 L6.06116,16.9124 L6.40491,17.1624 L7.02991,17.4124 L7.90491,17.6624 L8.92053,17.8968 L9.96741,18.0999 L10.9362,18.2562 L11.7174,18.3499 L12.2643,18.3812 L12.5299,18.3499 L12.4674,18.2562 L12.0299,18.0999 L11.4205,17.8812 L10.8424,17.5999 L10.4987,17.2562 L10.5924,16.8499 L10.9674,16.3343 L11.4674,15.6624 L11.9362,14.7874 L12.2174,13.6624 L12.3737,12.4437 L12.4674,11.2874 L12.5612,10.3499 L12.7174,9.78741 L12.9205,9.59991 L13.1549,9.78741 L13.4049,10.3499 L13.6549,11.2874 L13.858,12.4437 L13.9674,13.6624 L13.9362,14.7874 L13.7174,15.6624 L13.4205,16.3343 L13.1549,16.8499 L13.0299,17.2562 L13.1549,17.5999 L13.4205,17.8968 L13.7174,18.1624 L13.9362,18.4124 L13.9674,18.6624 L13.8112,18.8968 L13.4674,19.0999 L12.9362,19.2562 L12.2174,19.3499 L11.358,19.3655 L10.4049,19.2874 L9.40491,19.0999 L8.40491,18.7874 L7.46741,18.4593 L6.65491,18.2249 L6.02991,18.1937 L5.65491,18.4749 L5.62366,18.9437 L6.02991,19.4749 L6.96741,19.9437 L8.52991,20.2249 L10.4362,20.303 L12.4049,20.1624 L14.1549,19.7874 L15.4049,19.1624 L16.2487,18.2562 L16.7799,17.0374 L17.0924,15.4749 L17.2799,13.5374 L17.3893,11.4749 L17.4674,9.53741 L17.5612,7.97491 L17.7174,7.03741 L17.9362,6.55304 L18.2174,6.34991 L18.5612,6.25616 L18.9674,6.09991 L19.3424,5.88116 L19.5924,5.59991 L19.6237,5.25616 L19.3424,4.84991 L18.8268,4.45929 L18.1549,4.16241 L17.4049,4.03741 L16.6549,4.16241 L15.9205,4.45929 L15.2174,4.84991 L14.5612,5.25616 L13.9674,5.59991 L13.4674,5.87749 L13.0922,6.0852 L12.8732,6.21939 L12.8416,6.27636 L12.9505,6.28278 L13.1532,6.26531 L13.4031,6.25059 L13.6532,6.26531 L13.9192,6.43903 L14.2166,6.90136 L14.5607,7.78189 L14.9672,9.2102 L15.3736,10.9087 L15.7174,12.5999 L15.9362,14.0062 L15.9674,14.8499 L15.8424,15.1312 L15.5924,14.8499 z" fill="rgb(192,192,192)" stroke-width="0.5" stroke="rgb(0,0,0)" />
</svg>
